<svg width="138" height="41" viewBox="0 0 138 41" fill="none" xmlns="http://www.w3.org/2000/svg">
<path d="M33.2745 1.25298L33.3905 40.3204L26.2561 40.3416L9.18647 15.8032L8.90033 15.8041L8.97335 40.3929L0.713487 40.4174L0.597483 1.35001L7.84632 1.32848L24.7824 25.8482L25.1257 25.8471L25.0528 1.27739L33.2745 1.25298ZM40.2149 40.3001L40.0989 1.23271L65.9658 1.1559L65.986 7.966L48.379 8.01828L48.4066 17.3273L64.2968 17.2801L64.317 24.0902L48.4268 24.1374L48.4747 40.2756L40.2149 40.3001ZM70.0539 7.95392L70.0337 1.14383L102.119 1.04855L102.14 7.85864L90.179 7.89416L90.2748 40.1515L82.1103 40.1757L82.0145 7.9184L70.0539 7.95392ZM128.63 12.2056C128.473 10.6673 127.814 9.47382 126.655 8.6252C125.495 7.77658 123.923 7.35521 121.939 7.3611C120.591 7.3651 119.453 7.55924 118.526 7.94352C117.599 8.31508 116.888 8.83224 116.394 9.49501C115.913 10.1577 115.674 10.9088 115.676 11.7481C115.653 12.4476 115.801 13.0576 116.12 13.5781C116.452 14.0985 116.905 14.5486 117.479 14.9285C118.052 15.2956 118.714 15.6179 119.465 15.8954C120.217 16.1603 121.018 16.3868 121.871 16.575L125.383 17.404C127.089 17.7804 128.654 18.2845 130.081 18.9161C131.507 19.5477 132.743 20.3262 133.788 21.2514C134.834 22.1767 135.645 23.268 136.221 24.5253C136.809 25.7826 137.113 27.2251 137.13 28.8529C137.125 31.2437 136.52 33.3185 135.317 35.077C134.127 36.8229 132.402 38.1824 130.141 39.1556C127.893 40.1161 125.179 40.601 122 40.6105C118.846 40.6199 116.097 40.1448 113.755 39.1852C111.424 38.2256 109.602 36.8003 108.286 34.9093C106.983 33.0056 106.296 30.6485 106.224 27.8382L114.217 27.8145C114.31 29.1241 114.688 30.2167 115.352 31.0922C116.029 31.955 116.927 32.6072 118.048 33.049C119.181 33.4781 120.459 33.6905 121.884 33.6862C123.283 33.6821 124.496 33.475 125.525 33.065C126.567 32.6549 127.373 32.0866 127.943 31.36C128.513 30.6334 128.797 29.7996 128.794 28.8585C128.791 27.981 128.528 27.2442 128.005 26.6481C127.495 26.0519 126.743 25.5454 125.75 25.1287C124.769 24.7119 123.566 24.334 122.141 23.9948L117.884 22.9392C114.588 22.1478 111.983 20.9029 110.071 19.2044C108.158 17.506 107.204 15.2133 107.208 12.3265C107.188 9.96109 107.812 7.89267 109.078 6.1212C110.357 4.34968 112.115 2.96463 114.35 1.96604C116.585 0.967446 119.127 0.46392 121.976 0.455462C124.875 0.446852 127.408 0.935311 129.572 1.92084C131.75 2.90633 133.445 4.28113 134.659 6.04524C135.872 7.80935 136.501 9.85498 136.547 12.1821L128.63 12.2056Z" fill="url(#paint0_linear_224_8)"/>
<defs>
<linearGradient id="paint0_linear_224_8" x1="5.57531" y1="-11.5973" x2="140.441" y2="40.0192" gradientUnits="userSpaceOnUse">
<stop stop-color="#24AEAE"/>
<stop offset="1" stop-color="#FFE600"/>
</linearGradient>
</defs>
</svg>
